<?xml version="1.0" ?><!DOCTYPE svg  PUBLIC '-//W3C//DTD SVG 1.1//EN'  'http://www.w3.org/Graphics/SVG/1.1/DTD/svg11.dtd'><svg height="512px" style="enable-background:new 0 0 512 512;" version="1.1" viewBox="0 0 512 512" width="512px" xml:space="preserve" xmlns="http://www.w3.org/2000/svg" xmlns:xlink="http://www.w3.org/1999/xlink"><style type="text/css">
<![CDATA[
	.st0{display:inline;}
	.st1{fill:none;stroke:#000000;stroke-width:16;stroke-linecap:round;stroke-linejoin:round;stroke-miterlimit:10;}
	.st2{display:none;}
]]>
</style><g class="st2" id="Layer"><g class="st0"><polyline class="st1" points="278,77 116,77 116,455 396,455 396,77 360,77   "/><polygon class="st1" points="278,219 319,158 360,219 360,57 278,57   "/><line class="st1" x1="161" x2="161" y1="455" y2="77"/></g></g><g id="Layer_copy"><path d="M396,69h-28V57c0-4.418-3.582-8-8-8h-82c-4.418,0-8,3.582-8,8v12H116c-4.418,0-8,3.582-8,8v378c0,4.418,3.582,8,8,8h280   c4.418,0,8-3.582,8-8V77C404,72.582,400.418,69,396,69z M286,65h66v127.756l-26.36-39.219c-1.486-2.211-3.976-3.537-6.64-3.537   s-5.153,1.326-6.64,3.537L286,192.756V65z M124,85h29v362h-29V85z M388,447H169V85h101v134c0,3.52,2.301,6.626,5.667,7.652   c3.371,1.026,7.01-0.27,8.973-3.189L319,172.341l34.36,51.122c1.514,2.252,4.025,3.538,6.641,3.538   c0.775,0,1.562-0.113,2.332-0.348C365.699,225.626,368,222.52,368,219V85h20V447z"/></g></svg>